# xmcd
#
# Track frame offsets:
#	150
#	18571
#	35668
#	57262
#	78105
#	96416
#	117207
#	132469
#	148856
#	163581
#
# Disc length: 2422 seconds
#
# Revision: 1
# Processed by: cddbd v1.5.2PL0 Copyright (c) Steve Scherf et al.
# Submitted via: audiograbber 1.83.01
#
DISCID=8909740a
DTITLE=Sunset Pioneers - BALLADS of THE TRAILS
DYEAR=2005
DGENRE=Country
TTITLE0=Cool Water
TTITLE1=Arizona
TTITLE2=Ridin' Down The Canyon
TTITLE3=Streets Of Laredo
TTITLE4=Vaya Con Dios
TTITLE5=El Paso
TTITLE6=Shifting Whispering Sands
TTITLE7=The Place Where I Worship
TTITLE8=Happy Trails
TTITLE9=We Rode Together
EXTD=
EXTT0=
EXTT1=
EXTT2=
EXTT3=
EXTT4=
EXTT5=
EXTT6=
EXTT7=
EXTT8=
EXTT9=
PLAYORDER=
